<?xml version="1.0" encoding="UTF-8"?>
<svg width="67px" height="56px" viewBox="0 0 67 56" version="1.1" xmlns="http://www.w3.org/2000/svg" xmlns:xlink="http://www.w3.org/1999/xlink">
    <!-- Generator: Sketch 53 (72520) - https://sketchapp.com -->
    <title>scan</title>
    <desc>Created with Sketch.</desc>
    <g id="Page-1" stroke="none" stroke-width="1" fill="none" fill-rule="evenodd">
        <g id="scan" transform="translate(0.000000, -0.812500)" fill-rule="nonzero">
            <path d="M50.5798993,55.8125 L16.4201007,55.8125 C13.9787088,55.8125 12,53.8798077 12,51.4951923 L12,18.1298077 C12,15.7451923 13.9787088,13.8125 16.4201007,13.8125 L50.5798993,13.8125 C53.0212912,13.8125 55,15.7451923 55,18.1298077 L55,51.4951923 C55,53.8798077 53.0212912,55.8125 50.5798993,55.8125 Z" id="Path" fill-opacity="0.8" fill="#5FB0E5"></path>
            <path d="M12,39.6484375 L55,39.6484375 L55,39.8125 L12,39.8125 L12,39.6484375 Z M12,39.484375 L55,39.484375 L55,39.6484375 L12,39.6484375 L12,39.484375 Z M12,39.3125 L55,39.3125 L55,39.4765625 L12,39.4765625 L12,39.3125 Z M12,39.1484375 L55,39.1484375 L55,39.3125 L12,39.3125 L12,39.1484375 Z M12,38.984375 L55,38.984375 L55,39.1484375 L12,39.1484375 L12,38.984375 Z M12,38.8125 L55,38.8125 L55,38.9765625 L12,38.9765625 L12,38.8125 Z" id="Shape" fill="#80E1FF"></path>
            <path d="M12,39.0875 L55,39.0875 L55,39.35 L12,39.35 L12,39.0875 Z M12,38.8125 L55,38.8125 L55,39.075 L12,39.075 L12,38.8125 Z" id="Shape" fill="#80E1FF"></path>
            <path d="M12,38.35 L55,38.35 L55,38.6125 L12,38.6125 L12,38.35 Z M12,38.0875 L55,38.0875 L55,38.35 L12,38.35 L12,38.0875 Z M12,37.8125 L55,37.8125 L55,38.075 L12,38.075 L12,37.8125 Z" id="Shape" fill="#7FE1FF"></path>
            <path d="M12,37.35 L55,37.35 L55,37.6125 L12,37.6125 L12,37.35 Z M12,37.0875 L55,37.0875 L55,37.35 L12,37.35 L12,37.0875 Z M12,36.8125 L55,36.8125 L55,37.075 L12,37.075 L12,36.8125 Z" id="Shape" fill="#7FE0FF"></path>
            <path d="M12,37.35 L55,37.35 L55,37.6125 L12,37.6125 L12,37.35 Z M12,37.0875 L55,37.0875 L55,37.35 L12,37.35 L12,37.0875 Z M12,36.8125 L55,36.8125 L55,37.075 L12,37.075 L12,36.8125 Z" id="Shape" fill="#7EE0FF"></path>
            <polygon id="Path" fill="#7EE0FF" points="12 36.7109456 55 36.7109456 55 36.9140544 12 36.9140544"></polygon>
            <polygon id="Path" fill="#7DE0FF" points="12 35.7109456 55 35.7109456 55 35.9140544 12 35.9140544"></polygon>
            <path d="M12,36.075 L55,36.075 L55,36.3375 L12,36.3375 L12,36.075 Z M12,35.8125 L55,35.8125 L55,36.075 L12,36.075 L12,35.8125 Z" id="Shape" fill="#7DDFFE"></path>
            <path d="M12,35.3375 L55,35.3375 L55,35.6 L12,35.6 L12,35.3375 Z M12,35.075 L55,35.075 L55,35.3375 L12,35.3375 L12,35.075 Z M12,34.8125 L55,34.8125 L55,35.075 L12,35.075 L12,34.8125 Z" id="Shape" fill="#7CDFFE"></path>
            <polygon id="Path" fill="#7BDFFE" points="12 34.7109456 55 34.7109456 55 34.9140544 12 34.9140544"></polygon>
            <polygon id="Path" fill="#7BDEFE" points="12 34.7109456 55 34.7109456 55 34.9140544 12 34.9140544"></polygon>
            <path d="M12,34.35 L55,34.35 L55,34.6125 L12,34.6125 L12,34.35 Z M12,34.075 L55,34.075 L55,34.3375 L12,34.3375 L12,34.075 Z M12,33.8125 L55,33.8125 L55,34.075 L12,34.075 L12,33.8125 Z" id="Shape" fill="#7ADEFE"></path>
            <path d="M12,34.075 L55,34.075 L55,34.3375 L12,34.3375 L12,34.075 Z M12,33.8125 L55,33.8125 L55,34.075 L12,34.075 L12,33.8125 Z" id="Shape" fill="#79DDFE"></path>
            <polygon id="Path" fill="#78DDFE" points="12 33.7109456 55 33.7109456 55 33.9140544 12 33.9140544"></polygon>
            <polygon id="Path" fill="#78DDFD" points="12 33.7109456 55 33.7109456 55 33.9140544 12 33.9140544"></polygon>
            <path d="M12,33.075 L55,33.075 L55,33.3375 L12,33.3375 L12,33.075 Z M12,32.8125 L55,32.8125 L55,33.075 L12,33.075 L12,32.8125 Z" id="Shape" fill="#77DCFD"></path>
            <polygon id="Path" fill="#76DCFD" points="12 32.7109456 55 32.7109456 55 32.9140544 12 32.9140544"></polygon>
            <polygon id="Path" fill="#75DCFD" points="12 32.7109456 55 32.7109456 55 32.9140544 12 32.9140544"></polygon>
            <polygon id="Path" fill="#75DBFD" points="12 31.7109456 55 31.7109456 55 31.9140544 12 31.9140544"></polygon>
            <path d="M12,32.075 L55,32.075 L55,32.3375 L12,32.3375 L12,32.075 Z M12,31.8125 L55,31.8125 L55,32.075 L12,32.075 L12,31.8125 Z" id="Shape" fill="#74DBFD"></path>
            <polygon id="Path" fill="#73DAFD" points="12 31.7109456 55 31.7109456 55 31.9140544 12 31.9140544"></polygon>
            <polygon id="Path" fill="#72DAFD" points="12 31.7109456 55 31.7109456 55 31.9140544 12 31.9140544"></polygon>
            <polygon id="Path" fill="#72DAFC" points="12 30.7109456 55 30.7109456 55 30.9140544 12 30.9140544"></polygon>
            <polygon id="Path" fill="#71D9FC" points="12 30.7109456 55 30.7109456 55 30.9140544 12 30.9140544"></polygon>
            <path d="M12,31.075 L55,31.075 L55,31.3375 L12,31.3375 L12,31.075 Z M12,30.8125 L55,30.8125 L55,31.075 L12,31.075 L12,30.8125 Z" id="Shape" fill="#70D9FC"></path>
            <polygon id="Path" fill="#6FD8FC" points="12 30.7109456 55 30.7109456 55 30.9140544 12 30.9140544"></polygon>
            <polygon id="Path" fill="#6ED8FC" points="12 29.7109456 55 29.7109456 55 29.9140544 12 29.9140544"></polygon>
            <polygon id="Path" fill="#6DD7FC" points="12 29.7109456 55 29.7109456 55 29.9140544 12 29.9140544"></polygon>
            <polygon id="Path" fill="#6DD7FC" points="12 29.7109456 55 29.7109456 55 29.9140544 12 29.9140544"></polygon>
            <polygon id="Path" fill="#6CD7FB" points="12 29.7109456 55 29.7109456 55 29.9140544 12 29.9140544"></polygon>
            <polygon id="Path" fill="#6BD6FB" points="12 29.7109456 55 29.7109456 55 29.9140544 12 29.9140544"></polygon>
            <polygon id="Path" fill="#6AD6FB" points="12 28.7109456 55 28.7109456 55 28.9140544 12 28.9140544"></polygon>
            <polygon id="Path" fill="#69D5FB" points="12 28.7109456 55 28.7109456 55 28.9140544 12 28.9140544"></polygon>
            <polygon id="Path" fill="#68D5FB" points="12 28.7109456 55 28.7109456 55 28.9140544 12 28.9140544"></polygon>
            <polygon id="Path" fill="#68D4FB" points="12 28.7109456 55 28.7109456 55 28.9140544 12 28.9140544"></polygon>
            <polygon id="Path" fill="#67D4FA" points="12 28.7109456 55 28.7109456 55 28.9140544 12 28.9140544"></polygon>
            <polygon id="Path" fill="#66D3FA" points="12 27.7109456 55 27.7109456 55 27.9140544 12 27.9140544"></polygon>
            <polygon id="Path" fill="#65D3FA" points="12 27.7109456 55 27.7109456 55 27.9140544 12 27.9140544"></polygon>
            <polygon id="Path" fill="#64D3FA" points="12 27.7109456 55 27.7109456 55 27.9140544 12 27.9140544"></polygon>
            <polygon id="Path" fill="#63D2FA" points="12 27.7109456 55 27.7109456 55 27.9140544 12 27.9140544"></polygon>
            <polygon id="Path" fill="#62D2FA" points="12 27.7109456 55 27.7109456 55 27.9140544 12 27.9140544"></polygon>
            <polygon id="Path" fill="#61D1F9" points="12 26.7109456 55 26.7109456 55 26.9140544 12 26.9140544"></polygon>
            <polygon id="Path" fill="#60D1F9" points="12 26.7109456 55 26.7109456 55 26.9140544 12 26.9140544"></polygon>
            <polygon id="Path" fill="#5FD0F9" points="12 26.7109456 55 26.7109456 55 26.9140544 12 26.9140544"></polygon>
            <polygon id="Path" fill="#5ECFF9" points="12 26.7109456 55 26.7109456 55 26.9140544 12 26.9140544"></polygon>
            <polygon id="Path" fill="#5DCFF9" points="12 25.7109456 55 25.7109456 55 25.9140544 12 25.9140544"></polygon>
            <polygon id="Path" fill="#5CCEF9" points="12 25.7109456 55 25.7109456 55 25.9140544 12 25.9140544"></polygon>
            <polygon id="Path" fill="#5BCEF8" points="12 25.7109456 55 25.7109456 55 25.9140544 12 25.9140544"></polygon>
            <polygon id="Path" fill="#5ACDF8" points="12 25.7109456 55 25.7109456 55 25.9140544 12 25.9140544"></polygon>
            <polygon id="Path" fill="#59CDF8" points="12 25.7109456 55 25.7109456 55 25.9140544 12 25.9140544"></polygon>
            <polygon id="Path" fill="#57CCF8" points="12 24.7109456 55 24.7109456 55 24.9140544 12 24.9140544"></polygon>
            <polygon id="Path" fill="#56CCF8" points="12 24.7109456 55 24.7109456 55 24.9140544 12 24.9140544"></polygon>
            <polygon id="Path" fill="#55CBF7" points="12 24.7109456 55 24.7109456 55 24.9140544 12 24.9140544"></polygon>
            <polygon id="Path" fill="#54CAF7" points="12 24.7109456 55 24.7109456 55 24.9140544 12 24.9140544"></polygon>
            <polygon id="Path" fill="#53CAF7" points="12 24.7109456 55 24.7109456 55 24.9140544 12 24.9140544"></polygon>
            <polygon id="Path" fill="#52C9F7" points="12 23.7109456 55 23.7109456 55 23.9140544 12 23.9140544"></polygon>
            <polygon id="Path" fill="#50C8F6" points="12 23.7109456 55 23.7109456 55 23.9140544 12 23.9140544"></polygon>
            <polygon id="Path" fill="#4FC8F6" points="12 23.7109456 55 23.7109456 55 23.9140544 12 23.9140544"></polygon>
            <polygon id="Path" fill="#4EC7F6" points="12 23.7109456 55 23.7109456 55 23.9140544 12 23.9140544"></polygon>
            <polygon id="Path" fill="#4DC7F6" points="12 23.7109456 55 23.7109456 55 23.9140544 12 23.9140544"></polygon>
            <polygon id="Path" fill="#4BC6F6" points="12 22.7109456 55 22.7109456 55 22.9140544 12 22.9140544"></polygon>
            <polygon id="Path" fill="#4AC5F5" points="12 22.7109456 55 22.7109456 55 22.9140544 12 22.9140544"></polygon>
            <polygon id="Path" fill="#49C5F5" points="12 22.7109456 55 22.7109456 55 22.9140544 12 22.9140544"></polygon>
            <polygon id="Path" fill="#48C4F5" points="12 22.7109456 55 22.7109456 55 22.9140544 12 22.9140544"></polygon>
            <polygon id="Path" fill="#46C3F5" points="12 22.7109456 55 22.7109456 55 22.9140544 12 22.9140544"></polygon>
            <polygon id="Path" fill="#45C2F4" points="12 21.7109456 55 21.7109456 55 21.9140544 12 21.9140544"></polygon>
            <polygon id="Path" fill="#43C2F4" points="12 21.7109456 55 21.7109456 55 21.9140544 12 21.9140544"></polygon>
            <polygon id="Path" fill="#42C1F4" points="12 21.7109456 55 21.7109456 55 21.9140544 12 21.9140544"></polygon>
            <polygon id="Path" fill="#41C0F4" points="12 21.7109456 55 21.7109456 55 21.9140544 12 21.9140544"></polygon>
            <polygon id="Path" fill="#3FC0F3" points="12 21.7109456 55 21.7109456 55 21.9140544 12 21.9140544"></polygon>
            <polygon id="Path" fill="#3EBFF3" points="12 20.7109456 55 20.7109456 55 20.9140544 12 20.9140544"></polygon>
            <polygon id="Path" fill="#3CBEF3" points="12 20.7109456 55 20.7109456 55 20.9140544 12 20.9140544"></polygon>
            <polygon id="Path" fill="#3BBDF3" points="12 20.7109456 55 20.7109456 55 20.9140544 12 20.9140544"></polygon>
            <polygon id="Path" fill="#39BDF2" points="12 20.7109456 55 20.7109456 55 20.9140544 12 20.9140544"></polygon>
            <polygon id="Path" fill="#38BCF2" points="12 19.7109456 55 19.7109456 55 19.9140544 12 19.9140544"></polygon>
            <polygon id="Path" fill="#36BBF2" points="12 19.7109456 55 19.7109456 55 19.9140544 12 19.9140544"></polygon>
            <polygon id="Path" fill="#35BAF2" points="12 19.7109456 55 19.7109456 55 19.9140544 12 19.9140544"></polygon>
            <polygon id="Path" fill="#33B9F1" points="12 19.7109456 55 19.7109456 55 19.9140544 12 19.9140544"></polygon>
            <polygon id="Path" fill="#32B9F1" points="12 19.7109456 55 19.7109456 55 19.9140544 12 19.9140544"></polygon>
            <polygon id="Path" fill="#30B8F1" points="12 18.7109456 55 18.7109456 55 18.9140544 12 18.9140544"></polygon>
            <polygon id="Path" fill="#2FB7F0" points="12 18.7109456 55 18.7109456 55 18.9140544 12 18.9140544"></polygon>
            <polygon id="Path" fill="#2DB6F0" points="12 18.7109456 55 18.7109456 55 18.9140544 12 18.9140544"></polygon>
            <polygon id="Path" fill="#2BB5F0" points="12 18.7109456 55 18.7109456 55 18.9140544 12 18.9140544"></polygon>
            <polygon id="Path" fill="#2AB5F0" points="12 18.7109456 55 18.7109456 55 18.9140544 12 18.9140544"></polygon>
            <polygon id="Path" fill="#28B4EF" points="12 17.7109456 55 17.7109456 55 17.9140544 12 17.9140544"></polygon>
            <polygon id="Path" fill="#26B3EF" points="12 17.7109456 55 17.7109456 55 17.9140544 12 17.9140544"></polygon>
            <polygon id="Path" fill="#25B2EF" points="12 17.7109456 55 17.7109456 55 17.9140544 12 17.9140544"></polygon>
            <polygon id="Path" fill="#23B1EE" points="12 17.7109456 55 17.7109456 55 17.9140544 12 17.9140544"></polygon>
            <polygon id="Path" fill="#21B0EE" points="12 17.7109456 55 17.7109456 55 17.9140544 12 17.9140544"></polygon>
            <polygon id="Path" fill="#20AFEE" points="12 16.7109456 55 16.7109456 55 16.9140544 12 16.9140544"></polygon>
            <polygon id="Path" fill="#1EAEED" points="12 16.7109456 55 16.7109456 55 16.9140544 12 16.9140544"></polygon>
            <polygon id="Path" fill="#1CAEED" points="12 16.7109456 55 16.7109456 55 16.9140544 12 16.9140544"></polygon>
            <polygon id="Path" fill="#1AADED" points="12 16.7109456 55 16.7109456 55 16.9140544 12 16.9140544"></polygon>
            <polygon id="Path" fill="#19ACEC" points="12 16.7109456 55 16.7109456 55 16.9140544 12 16.9140544"></polygon>
            <polygon id="Path" fill="#17ABEC" points="12 15.7109456 55 15.7109456 55 15.9140544 12 15.9140544"></polygon>
            <polygon id="Path" fill="#15AAEC" points="12 15.7109456 55 15.7109456 55 15.9140544 12 15.9140544"></polygon>
            <polygon id="Path" fill="#13A9EB" points="12 15.7109456 55 15.7109456 55 15.9140544 12 15.9140544"></polygon>
            <polygon id="Path" fill="#11A8EB" points="12 15.7109456 55 15.7109456 55 15.9140544 12 15.9140544"></polygon>
            <polygon id="Path" fill="#0FA7EB" points="12 15.7109456 55 15.7109456 55 15.9140544 12 15.9140544"></polygon>
            <polygon id="Path" fill="#0EA6EA" points="12 14.7109456 55 14.7109456 55 14.9140544 12 14.9140544"></polygon>
            <polygon id="Path" fill="#0CA5EA" points="12 14.7109456 55 14.7109456 55 14.9140544 12 14.9140544"></polygon>
            <polygon id="Path" fill="#0AA4EA" points="12 14.7109456 55 14.7109456 55 14.9140544 12 14.9140544"></polygon>
            <polygon id="Path" fill="#08A3E9" points="12 14.7109456 55 14.7109456 55 14.9140544 12 14.9140544"></polygon>
            <polygon id="Path" fill="#06A2E9" points="12 14.7109456 55 14.7109456 55 14.9140544 12 14.9140544"></polygon>
            <polygon id="Path" fill="#04A1E9" points="12 13.7109456 55 13.7109456 55 13.9140544 12 13.9140544"></polygon>
            <polygon id="Path" fill="#02A0E8" points="12 13.7109456 55 13.7109456 55 13.9140544 12 13.9140544"></polygon>
            <polygon id="Path" fill="#009FE8" points="12 13.7109456 55 13.7109456 55 13.9140544 12 13.9140544"></polygon>
            <path d="M54.6807502,27.850663 C53.9532227,27.850663 53.3712007,27.2588131 53.3712007,26.5408312 L53.3712007,20.5059023 C53.3712007,17.1585543 50.6453977,14.4321636 47.3084717,14.4321636 L41.3524466,14.4321636 C40.6249192,14.4321636 40.0428972,13.8403137 40.0428972,13.1223318 C40.0428972,12.4043499 40.6346195,11.8125 41.3524466,11.8125 L47.3084717,11.8125 C52.1004527,11.8125 56,15.7128881 56,20.5059023 L56,26.5408312 C55.9902996,27.2685155 55.3985773,27.850663 54.6807502,27.850663 L54.6807502,27.850663 Z M47.2987713,56.8125 L41.3427463,56.8125 C40.6152188,56.8125 40.0331968,56.2206501 40.0331968,55.5026682 C40.0331968,54.7846863 40.6249192,54.1928364 41.3427463,54.1928364 L47.2987713,54.1928364 C50.6453977,54.1928364 53.3615003,51.4664457 53.3615003,48.1190977 L53.3615003,42.2394082 C53.3615003,41.5117238 53.9532227,40.9295763 54.6710498,40.9295763 C55.3888769,40.9295763 55.9805993,41.5214263 55.9805993,42.2394082 L55.9805993,48.1190977 C55.9902996,52.9121119 52.0907523,56.8125 47.2987713,56.8125 Z M25.6475534,56.8125 L19.6915283,56.8125 C14.8995473,56.8125 11,52.9121119 11,48.1190977 L11,42.2394082 C11,41.5117238 11.5917224,40.9295763 12.3095495,40.9295763 C13.037077,40.9295763 13.6190989,41.5214263 13.6190989,42.2394082 L13.6190989,48.1190977 C13.6190989,51.4664457 16.3449019,54.1928364 19.681828,54.1928364 L25.637853,54.1928364 C26.3653805,54.1928364 26.9474025,54.7846863 26.9474025,55.5026682 C26.9474025,56.2206501 26.3750808,56.8125 25.6475534,56.8125 Z M12.3095495,27.850663 C11.582022,27.850663 11,27.2588131 11,26.5408312 L11,20.5059023 C11,15.7128881 14.8995473,11.8125 19.6915283,11.8125 L25.6475534,11.8125 C26.3750808,11.8125 26.9571028,12.4043499 26.9571028,13.1223318 C26.9571028,13.8403137 26.3653805,14.4321636 25.6475534,14.4321636 L19.6915283,14.4321636 C16.3449019,14.4321636 13.6287993,17.1585543 13.6287993,20.5059023 L13.6287993,26.5408312 C13.6287993,27.2685155 13.037077,27.850663 12.3095495,27.850663 L12.3095495,27.850663 Z" id="Shape" fill="#3E3A39"></path>
            <path d="M47.3144129,56.8125 L41.3558213,56.8125 C40.6279803,56.8125 40.0457076,56.2162874 40.0457076,55.4930131 C40.0457076,54.7697389 40.6376849,54.1735263 41.3558213,54.1735263 L47.3144129,54.1735263 C50.6624814,54.1735263 53.3797544,51.4270388 53.3797544,48.0550168 L53.3797544,42.1319869 C53.3797544,41.3989386 53.9717317,40.8125 54.6898682,40.8125 C55.4080046,40.8125 55.9999819,41.4087126 55.9999819,42.1319869 L55.9999819,48.0550168 C56.0096865,52.8833613 52.1084588,56.8125 47.3144129,56.8125 Z M25.6538652,56.8125 L19.6952736,56.8125 C14.9012277,56.8125 11,52.8833613 11,48.0550168 L11,42.1319869 C11,41.3989386 11.5919773,40.8125 12.3101138,40.8125 C13.0379548,40.8125 13.6202275,41.4087126 13.6202275,42.1319869 L13.6202275,48.0550168 C13.6202275,51.4270388 16.3472051,54.1735263 19.6855691,54.1735263 L25.6441606,54.1735263 C26.3720016,54.1735263 26.9542744,54.7697389 26.9542744,55.4930131 C26.9542744,56.2162874 26.3817061,56.8125 25.6538652,56.8125 Z" id="Shape" fill="#0686D8"></path>
            <polygon id="Path" fill="#FFFFFF" points="12 37.8125 55 37.8125 55 39.8125 12 39.8125"></polygon>
            <polygon id="Path" fill="#FFFFFF" opacity="0.9" points="12 36.8125 55 36.8125 55 38.8125 12 38.8125"></polygon>
            <polygon id="Path" fill="#FFFFFF" opacity="0.8" points="12 34.8125 55 34.8125 55 36.8125 12 36.8125"></polygon>
            <polygon id="Path" fill="#FFFFFF" opacity="0.7" points="12 32.8125 55 32.8125 55 34.8125 12 34.8125"></polygon>
            <polygon id="Path" fill="#FFFFFF" opacity="0.6" points="12 30.8125 55 30.8125 55 32.8125 12 32.8125"></polygon>
            <polygon id="Path" fill="#FFFFFF" opacity="0.5" points="12 29.8125 55 29.8125 55 31.8125 12 31.8125"></polygon>
            <polygon id="Path" fill="#FFFFFF" opacity="0.4" points="12 27.8125 55 27.8125 55 29.8125 12 29.8125"></polygon>
            <polygon id="Path" fill="#FFFFFF" opacity="0.3" points="12 25.8125 55 25.8125 55 27.8125 12 27.8125"></polygon>
            <polygon id="Path" fill="#FFFFFF" opacity="0.2" points="12 23.8125 55 23.8125 55 25.8125 12 25.8125"></polygon>
            <polygon id="Path" fill="#FFFFFF" opacity="0.1" points="12 22.8125 55 22.8125 55 24.8125 12 24.8125"></polygon>
            <path d="M54.6772036,27.8125 C53.9477204,27.8125 53.3641337,27.2220584 53.3641337,26.5057849 L53.3641337,20.4852163 C53.3641337,17.1458333 50.631003,14.4259301 47.2851064,14.4259301 L41.3130699,14.4259301 C40.5835866,14.4259301 40,13.8354885 40,13.1192151 C40,12.4029416 40.5933131,11.8125 41.3130699,11.8125 L47.2851064,11.8125 C52.0899696,11.8125 56,15.7036071 56,20.4852163 L56,26.5057849 C55.9902736,27.2317377 55.3969605,27.8125 54.6772036,27.8125 L54.6772036,27.8125 Z" id="Path" fill="#0686D8"></path>
            <path d="M12.3130699,27.8125 C11.5835866,27.8125 11,27.2220584 11,26.5057849 L11,20.4852163 C11,15.7036071 14.9100304,11.8125 19.7148936,11.8125 L25.6869301,11.8125 C26.4164134,11.8125 27,12.4029416 27,13.1192151 C27,13.8354885 26.4066869,14.4259301 25.6869301,14.4259301 L19.7148936,14.4259301 C16.3592705,14.4259301 13.6358663,17.1458333 13.6358663,20.4852163 L13.6358663,26.5057849 C13.6358663,27.2317377 13.0425532,27.8125 12.3130699,27.8125 L12.3130699,27.8125 Z" id="Path" fill="#0686D8"></path>
            <path d="M47.0647572,51.8125 L44.3449564,51.8125 C43.5977584,51.8125 43,51.2370283 43,50.5389151 C43,49.8408019 43.607721,49.2653302 44.3449564,49.2653302 L47.0647572,49.2653302 C47.7521793,49.2653302 48.3100872,48.7370283 48.3100872,48.0860849 C48.3100872,47.3785377 48.9178082,46.8125 49.6550436,46.8125 C50.392279,46.8125 51,47.3785377 51,48.0860849 C51,50.1426887 49.2366127,51.8125 47.0647572,51.8125 Z" id="Path" fill="#FFFFFF"></path>
            <path d="M45,4.8125 C43.892562,4.8125 43,3.91167355 43,2.8125 C43,1.71332645 43.9008264,0.8125 45,0.8125 C46.0991736,0.8125 47,1.71332645 47,2.8125 C47,3.91167355 46.107438,4.8125 45,4.8125 Z" id="Shape" fill="#5FB0E5"></path>
            <path d="M66.325,44.8125 C66.155,44.8125 65.975,44.7424784 65.845,44.6124384 L63.195,41.9716248 C62.935,41.7115447 62.935,41.2814121 63.195,41.0113289 C63.455,40.7412457 63.885,40.7512488 64.155,41.0113289 L66.805,43.6521425 C67.065,43.9122226 67.065,44.3423552 66.805,44.6124384 C66.665,44.7524815 66.495,44.8125 66.325,44.8125 L66.325,44.8125 Z" id="Path" fill="#5FB0E5"></path>
            <path d="M63.6766917,44.8125 C63.5062657,44.8125 63.3258145,44.7424124 63.1954887,44.6122497 C62.9348371,44.3519243 62.9348371,43.9213861 63.1954887,43.6510482 L65.8421053,41.0077441 C66.1027569,40.7474186 66.5338346,40.7474186 66.8045113,41.0077441 C67.0651629,41.2680695 67.0651629,41.6986076 66.8045113,41.9689456 L64.1578947,44.6122497 C64.0275689,44.7524249 63.8571429,44.8125 63.6766917,44.8125 L63.6766917,44.8125 Z" id="Path" fill="#5FB0E5"></path>
            <path d="M3.32330827,16.8125 C3.15288221,16.8125 2.97243108,16.7424124 2.84210526,16.6122497 L0.195488722,13.9689456 C-0.0651629073,13.7086202 -0.0651629073,13.278082 0.195488722,13.0077441 C0.456140351,12.7474186 0.887218045,12.7474186 1.15789474,13.0077441 L3.80451128,15.6510482 C4.06516291,15.9113736 4.06516291,16.3419118 3.80451128,16.6122497 C3.67418546,16.7424124 3.49373434,16.8125 3.32330827,16.8125 L3.32330827,16.8125 Z" id="Path" fill="#5FB0E5"></path>
            <path d="M0.676691729,16.8125 C0.506265664,16.8125 0.325814536,16.7424124 0.195488722,16.6122497 C-0.0651629073,16.3519243 -0.0651629073,15.9213861 0.195488722,15.6510482 L2.84210526,13.0077441 C3.10275689,12.7474186 3.53383459,12.7474186 3.80451128,13.0077441 C4.06516291,13.2680695 4.06516291,13.6986076 3.80451128,13.9689456 L1.15789474,16.6122497 C1.01754386,16.7424124 0.847117794,16.8125 0.676691729,16.8125 L0.676691729,16.8125 Z" id="Path" fill="#5FB0E5"></path>
            <path d="M3,44.8125 C1.90082645,44.8125 1,43.9116736 1,42.8125 C1,41.705062 1.90082645,40.8125 3,40.8125 C4.10743802,40.8125 5,41.7133264 5,42.8125 C5,43.9116736 4.10743802,44.8125 3,44.8125 Z" id="Shape" fill="#5FB0E5"></path>
            <path d="M12,4.8125 C12,5.36478475 12.4477153,5.8125 13,5.8125 C13.5522847,5.8125 14,5.36478475 14,4.8125 C14,4.26021525 13.5522847,3.8125 13,3.8125 C12.4477153,3.8125 12,4.26021525 12,4.8125 L12,4.8125 Z" id="Path" fill="#5FB0E5"></path>
            <path d="M2,29.8125 C2,30.3647847 2.44771525,30.8125 3,30.8125 C3.55228475,30.8125 4,30.3647847 4,29.8125 C4,29.2602153 3.55228475,28.8125 3,28.8125 C2.44771525,28.8125 2,29.2602153 2,29.8125 L2,29.8125 Z" id="Path" fill="#5FB0E5"></path>
            <path d="M63,28.8125 C63,29.3647847 63.4477153,29.8125 64,29.8125 C64.5522847,29.8125 65,29.3647847 65,28.8125 C65,28.2602153 64.5522847,27.8125 64,27.8125 C63.4477153,27.8125 63,28.2602153 63,28.8125 L63,28.8125 Z" id="Path" fill="#5FB0E5"></path>
        </g>
    </g>
</svg>