<?xml version="1.0" encoding="UTF-8"?>
<svg width="61px" height="57px" viewBox="0 0 61 57" version="1.1" xmlns="http://www.w3.org/2000/svg" xmlns:xlink="http://www.w3.org/1999/xlink">
    <!-- Generator: Sketch 53 (72520) - https://sketchapp.com -->
    <title>deviceList</title>
    <desc>Created with Sketch.</desc>
    <defs>
        <polygon id="path-1" points="0 0.572686755 60.5857104 0.572686755 60.5857104 13.9927 0 13.9927"></polygon>
        <polygon id="path-3" points="0 58.4277 60.586 58.4277 60.586 -0.0003 0 -0.0003"></polygon>
        <polygon id="path-5" points="0 58.4277 60.586 58.4277 60.586 -0.0003 0 -0.0003"></polygon>
        <polygon id="path-7" points="0 58.4277 60.586 58.4277 60.586 -0.0003 0 -0.0003"></polygon>
        <polygon id="path-9" points="0 58.4277 60.586 58.4277 60.586 -0.0003 0 -0.0003"></polygon>
        <polygon id="path-11" points="0 58.4277 60.586 58.4277 60.586 -0.0003 0 -0.0003"></polygon>
        <polygon id="path-13" points="0 58.4277 60.586 58.4277 60.586 -0.0003 0 -0.0003"></polygon>
        <polygon id="path-15" points="0 58.4277 60.586 58.4277 60.586 -0.0003 0 -0.0003"></polygon>
        <polygon id="path-17" points="0 58.4277 60.586 58.4277 60.586 -0.0003 0 -0.0003"></polygon>
        <polygon id="path-19" points="0 58.4277 60.586 58.4277 60.586 -0.0003 0 -0.0003"></polygon>
        <polygon id="path-21" points="0 58.4277 60.586 58.4277 60.586 -0.0003 0 -0.0003"></polygon>
        <polygon id="path-23" points="0 58.4277 60.586 58.4277 60.586 -0.0003 0 -0.0003"></polygon>
        <polygon id="path-25" points="0 58.4277 60.586 58.4277 60.586 -0.0003 0 -0.0003"></polygon>
        <polygon id="path-27" points="0 58.4277 60.586 58.4277 60.586 -0.0003 0 -0.0003"></polygon>
    </defs>
    <g id="Page-1" stroke="none" stroke-width="1" fill="none" fill-rule="evenodd">
        <g id="deviceList" transform="translate(0.000000, -2.000000)">
            <g id="Group-3" transform="translate(0.000000, 1.427700)">
                <g id="Fill-1-Clipped">
                    <mask id="mask-2" fill="white">
                        <use xlink:href="#path-1"></use>
                    </mask>
                    <g id="path-1"></g>
                    <path d="M3.0257,3.6157 C3.0257,4.4507 2.3487,5.1287 1.5127,5.1287 C0.6767,5.1287 -0.0003,4.4507 -0.0003,3.6157 C-0.0003,2.7807 0.6767,2.1027 1.5127,2.1027 C2.3487,2.1027 3.0257,2.7807 3.0257,3.6157 L3.0257,3.6157 Z M60.5857,9.7297 C60.5887,10.5277 59.9437,11.1767 59.1457,11.1797 C58.3477,11.1817 57.6987,10.5367 57.6957,9.7387 C57.6937,8.9407 58.3387,8.2917 59.1367,8.2897 L59.1417,8.2897 C59.9377,8.2897 60.5837,8.9337 60.5857,9.7297 L60.5857,9.7297 Z M10.5627,1.7147 C10.5617,2.0937 10.2547,2.4007 9.8757,2.4007 C9.4967,2.4007 9.1897,2.0937 9.1897,1.7147 C9.1897,1.3427 9.4857,1.0377 9.8577,1.0287 C10.2367,1.0187 10.5517,1.3177 10.5617,1.6967 C10.5617,1.7027 10.5627,1.7087 10.5627,1.7147 L10.5627,1.7147 Z M55.0547,13.3057 C55.0547,13.6857 54.7467,13.9927 54.3677,13.9927 C53.9887,13.9927 53.6817,13.6857 53.6817,13.3057 C53.6817,12.9277 53.9887,12.6197 54.3677,12.6197 C54.7467,12.6197 55.0547,12.9277 55.0547,13.3057 L55.0547,13.3057 Z M56.1967,1.7147 C56.1967,2.3457 55.6857,2.8577 55.0547,2.8577 C54.4237,2.8577 53.9117,2.3457 53.9117,1.7147 C53.9117,1.0837 54.4237,0.5727 55.0547,0.5727 C55.6837,0.5697 56.1937,1.0767 56.1967,1.7057 L56.1967,1.7147 Z M6.4487,12.6197 C6.4487,13.2507 5.9367,13.7617 5.3057,13.7617 C4.6747,13.7617 4.1637,13.2507 4.1637,12.6197 C4.1637,11.9887 4.6747,11.4777 5.3057,11.4777 L5.3107,11.4777 C5.9387,11.4777 6.4487,11.9867 6.4487,12.6157 L6.4487,12.6197 Z" id="Fill-1" fill="#5FB0E5" fill-rule="nonzero" mask="url(#mask-2)"></path>
                </g>
            </g>
            <path d="M44.0877,46.9015554 L44.0877,8.19650515 C44.0877,7.02841365 43.1693202,6.0819 42.0367599,6.0819 L11.7464514,6.0819 C10.6138911,6.0819 9.6947,7.02841365 9.6947,8.19650515 L9.6947,46.9049 L44.0877,46.9015554 Z" id="Fill-4" fill="#FFFFFF" fill-rule="nonzero"></path>
            <path d="M9.6951,12.6299 L9.6951,8.2089 C9.6951,7.0339 10.6471,6.0819 11.8221,6.0819 L49.9611,6.0819 C51.1351,6.0819 52.0881,7.0339 52.0881,8.2089 L52.0881,12.6299 L9.6951,12.6299 Z" id="Fill-6" fill="#D2E9F7" fill-rule="nonzero"></path>
            <path d="M10.4899699,53.3071 L8.6654,53.3071 L8.6654,8.08331158 C8.6654,6.40679168 9.91929332,5.0481 11.4665002,5.0481 L16.4484,5.0481 L16.4484,7.02516443 L11.4629556,7.02516443 C10.9259525,7.02516443 10.4899699,7.49758584 10.4899699,8.07851055 L10.4899699,53.3071 Z" id="Fill-8" fill="#0686D8" fill-rule="nonzero"></path>
            <path d="M52.1171766,53.3071 L50.1309097,53.3071 L50.1309097,8.08349806 C50.1309097,7.50161554 49.657254,7.03015627 49.0726606,7.03015627 L24.813,7.03015627 L24.813,5.0531 L49.0726606,5.0531 C50.7569841,5.0531 52.122,6.41178607 52.122,8.08733887 L52.1171766,53.3071 Z" id="Fill-10" fill="#0686D8" fill-rule="nonzero"></path>
            <g id="Fill-12-Clipped" transform="translate(0.000000, 2.000000)">
                <mask id="mask-4" fill="white">
                    <use xlink:href="#path-3"></use>
                </mask>
                <g id="path-3"></g>
                <polygon id="Fill-12" fill="#0686D8" fill-rule="nonzero" mask="url(#mask-4)" points="19.503 5.1117 22.416 5.1117 22.416 3.0527 19.503 3.0527"></polygon>
            </g>
            <g id="Fill-14-Clipped" transform="translate(0.000000, 1.000000)">
                <mask id="mask-6" fill="white">
                    <use xlink:href="#path-5"></use>
                </mask>
                <g id="path-3"></g>
                <polygon id="Fill-14" fill="#0686D8" fill-rule="nonzero" mask="url(#mask-6)" points="9.695 11.7767 52.088 11.7767 52.088 9.7177 9.695 9.7177"></polygon>
            </g>
            <g id="Fill-15-Clipped" transform="translate(0.000000, 1.000000)">
                <mask id="mask-8" fill="white">
                    <use xlink:href="#path-7"></use>
                </mask>
                <g id="path-3"></g>
                <polygon id="Fill-15" fill="#0686D8" fill-rule="nonzero" mask="url(#mask-8)" points="14.563 8.7467 16.261 8.7467 16.261 6.6877 14.563 6.6877"></polygon>
            </g>
            <g id="Fill-16-Clipped" transform="translate(0.000000, 1.000000)">
                <mask id="mask-10" fill="white">
                    <use xlink:href="#path-9"></use>
                </mask>
                <g id="path-3"></g>
                <polygon id="Fill-16" fill="#0686D8" fill-rule="nonzero" mask="url(#mask-10)" points="18.492 8.7467 20.19 8.7467 20.19 6.6877 18.492 6.6877"></polygon>
            </g>
            <g id="Fill-17-Clipped" transform="translate(0.000000, 1.000000)">
                <mask id="mask-12" fill="white">
                    <use xlink:href="#path-11"></use>
                </mask>
                <g id="path-3"></g>
                <polygon id="Fill-17" fill="#0686D8" fill-rule="nonzero" mask="url(#mask-12)" points="22.416 8.7467 24.114 8.7467 24.114 6.6877 22.416 6.6877"></polygon>
            </g>
            <g id="Fill-21-Clipped">
                <mask id="mask-14" fill="white">
                    <use xlink:href="#path-13"></use>
                </mask>
                <g id="path-3"></g>
                <polygon id="Fill-21" fill="#0686D8" fill-rule="nonzero" mask="url(#mask-14)" points="13 35.059 15 35.059 15 33 13 33"></polygon>
            </g>
            <g id="Fill-21-Clipped">
                <mask id="mask-16" fill="white">
                    <use xlink:href="#path-15"></use>
                </mask>
                <g id="path-3"></g>
                <polygon id="Fill-21" fill="#0686D8" fill-rule="nonzero" mask="url(#mask-16)" points="17 35.059 48.194 35.059 48.194 33 17 33"></polygon>
            </g>
            <g id="Fill-21-Copy-4-Clipped">
                <mask id="mask-18" fill="white">
                    <use xlink:href="#path-17"></use>
                </mask>
                <g id="path-3"></g>
                <polygon id="Fill-21-Copy-4" fill="#0686D8" fill-rule="nonzero" mask="url(#mask-18)" points="13 27.059 15 27.059 15 25 13 25"></polygon>
            </g>
            <g id="Fill-21-Copy-3-Clipped">
                <mask id="mask-20" fill="white">
                    <use xlink:href="#path-19"></use>
                </mask>
                <g id="path-3"></g>
                <polygon id="Fill-21-Copy-3" fill="#0686D8" fill-rule="nonzero" mask="url(#mask-20)" points="17 27.059 48.194 27.059 48.194 25 17 25"></polygon>
            </g>
            <g id="Fill-21-Copy-6-Clipped">
                <mask id="mask-22" fill="white">
                    <use xlink:href="#path-21"></use>
                </mask>
                <g id="path-3"></g>
                <polygon id="Fill-21-Copy-6" fill="#0686D8" fill-rule="nonzero" mask="url(#mask-22)" points="13 19.059 15 19.059 15 17 13 17"></polygon>
            </g>
            <g id="Fill-21-Copy-5-Clipped">
                <mask id="mask-24" fill="white">
                    <use xlink:href="#path-23"></use>
                </mask>
                <g id="path-3"></g>
                <polygon id="Fill-21-Copy-5" fill="#0686D8" fill-rule="nonzero" mask="url(#mask-24)" points="17 19.059 48.194 19.059 48.194 17 17 17"></polygon>
            </g>
            <g id="Fill-22-Clipped">
                <mask id="mask-26" fill="white">
                    <use xlink:href="#path-25"></use>
                </mask>
                <g id="path-3"></g>
                <path d="M51.907,58.396 L51.907,57.15 C51.907,55.934 50.924,54.949 49.708,54.946 L46.29,54.946 C45.893,53.198 45.201,51.531 44.244,50.015 L46.665,47.595 C47.527,46.737 47.531,45.341 46.673,44.478 L46.665,44.47 L44.858,42.664 C43.999,41.802 42.603,41.8 41.742,42.66 L41.738,42.664 L39.313,45.084 C37.801,44.126 36.136,43.435 34.391,43.039 L34.391,39.597 C34.388,38.375 33.396,37.385 32.174,37.385 L29.618,37.385 C28.396,37.385 27.406,38.375 27.406,39.597 L27.406,43.016 C25.688,43.407 24.047,44.082 22.551,45.012 L20.149,42.586 C19.292,41.723 17.896,41.717 17.032,42.574 C17.028,42.579 17.024,42.583 17.019,42.586 L15.213,44.393 C14.352,45.256 14.352,46.655 15.213,47.518 L17.615,49.952 C16.651,51.459 15.953,53.121 15.552,54.865 L12.134,54.865 C10.919,54.857 9.928,55.835 9.921,57.05 L9.921,57.073 L9.921,58.427 L23.919,58.427 C24.017,54.553 27.238,51.493 31.112,51.59 C34.848,51.685 37.854,54.692 37.949,58.427 L51.907,58.396 Z" id="Fill-22" fill="#5FB0E5" fill-rule="nonzero" mask="url(#mask-26)"></path>
            </g>
            <g id="Fill-23-Clipped">
                <mask id="mask-28" fill="white">
                    <use xlink:href="#path-27"></use>
                </mask>
                <g id="path-3"></g>
                <path d="M38.9383,58.4096 L36.8783,58.4096 C36.7883,55.1036 34.0353,52.4976 30.7293,52.5886 C27.5513,52.6766 24.9953,55.2316 24.9083,58.4096 L22.8493,58.4096 C22.9543,53.9666 26.6413,50.4506 31.0843,50.5556 C35.3783,50.6576 38.8363,54.1146 38.9383,58.4096 L38.9383,58.4096 Z M10.9053,58.4096 L8.8463,58.3826 L8.8463,57.0276 C8.8453,56.1656 9.1893,55.3396 9.8033,54.7336 C10.4263,54.1386 11.2533,53.8046 12.1153,53.7996 L14.7253,53.7996 C15.0933,52.4956 15.6203,51.2406 16.2923,50.0646 L14.4503,48.1996 C13.1883,46.9336 13.1883,44.8866 14.4503,43.6206 L16.2563,41.8146 C16.8553,41.2146 17.6673,40.8776 18.5143,40.8756 C19.3813,40.8736 20.2123,41.2206 20.8213,41.8376 L22.7223,43.7426 C23.8763,43.0966 25.1023,42.5906 26.3753,42.2346 L26.3753,39.5976 C26.3783,37.8076 27.8283,36.3576 29.6183,36.3546 L32.1733,36.3546 C33.9643,36.3576 35.4163,37.8066 35.4203,39.5976 L35.4203,42.2166 C36.7223,42.5796 37.9743,43.0996 39.1503,43.7646 L41.0153,41.9096 C42.2853,40.6516 44.3303,40.6516 45.5983,41.9096 L47.4053,43.7156 C48.6703,44.9786 48.6723,47.0286 47.4103,48.2946 L47.4053,48.2996 L45.5583,50.1506 C46.2243,51.3316 46.7463,52.5886 47.1113,53.8936 L49.7303,53.8936 C51.5123,53.8986 52.9553,55.3456 52.9553,57.1276 L52.9553,58.3736 L50.8953,58.3736 L50.8953,57.1276 C50.8983,56.4806 50.3763,55.9556 49.7303,55.9536 L49.7263,55.9536 L45.4863,55.9536 L45.3053,55.1586 C44.9343,53.5236 44.2893,51.9656 43.3953,50.5486 L42.9433,49.8526 L45.9423,46.8496 C46.4023,46.3996 46.4113,45.6626 45.9603,45.2026 C45.9553,45.1956 45.9483,45.1896 45.9423,45.1826 L44.1353,43.3776 C43.6723,42.9196 42.9273,42.9196 42.4643,43.3776 L39.4613,46.3806 L38.7663,45.9286 C37.3533,45.0336 35.7963,44.3876 34.1653,44.0176 L33.3663,43.8376 L33.3663,39.5976 C33.3633,38.9436 32.8333,38.4146 32.1783,38.4146 L29.6183,38.4146 C28.9653,38.4166 28.4373,38.9446 28.4353,39.5976 L28.4353,43.8376 L27.6313,44.0176 C26.0323,44.3866 24.5063,45.0176 23.1153,45.8886 L22.4203,46.3396 L19.4173,43.2916 C19.1923,43.0656 18.8873,42.9386 18.5683,42.9386 C18.2613,42.9376 17.9673,43.0596 17.7513,43.2776 L15.9443,45.0846 C15.4873,45.5456 15.4873,46.2896 15.9443,46.7506 L18.8893,49.7896 L18.4373,50.4796 C17.5363,51.8886 16.8843,53.4426 16.5093,55.0726 L16.3243,55.8766 L12.0843,55.8766 C11.7753,55.8876 11.4803,56.0076 11.2523,56.2156 C11.0283,56.4366 10.9033,56.7396 10.9053,57.0556 L10.9053,58.4096 Z" id="Fill-23" fill="#0686D8" fill-rule="nonzero" mask="url(#mask-28)"></path>
            </g>
        </g>
    </g>
</svg>